<svg width="23" height="28" viewBox="0 0 23 28" fill="none" xmlns="http://www.w3.org/2000/svg">
<path d="M15.8399 2.17361C13.448 1.61788 10.9603 1.61789 8.56835 2.17363C7.18682 1.32561 6.13116 0.936479 5.3639 0.772514C4.94677 0.683372 4.61614 0.661106 4.36745 0.66775C4.24334 0.671066 4.14064 0.681558 4.05882 0.694147C4.01795 0.700434 3.98245 0.707222 3.95223 0.713848C3.93712 0.71716 3.92336 0.720429 3.91092 0.723568L3.89327 0.728169L3.8852 0.730376L3.88135 0.731453L3.87762 0.73251C3.87761 0.732513 3.87763 0.732505 3.87762 0.73251C3.87679 0.732896 3.88091 0.743999 4.14646 1.67256L3.87762 0.73251C3.59965 0.812007 3.37106 1.01035 3.25316 1.27434C2.92405 2.01129 2.74429 2.80618 2.72429 3.61303C2.70942 4.21263 2.783 4.81 2.94169 5.38608C2.52463 5.89127 2.1848 6.45697 1.9344 7.06483C1.60574 7.8627 1.43762 8.71755 1.43967 9.58045C1.43991 12.6191 2.33639 14.6621 3.86412 15.9749C4.93452 16.8947 6.23575 17.3841 7.53865 17.6643C7.3235 18.2622 7.26767 18.8945 7.31123 19.539V20.7099C6.51396 20.8775 5.96344 20.8245 5.57097 20.6949C5.0778 20.5322 4.6997 20.2048 4.33905 19.7346C4.1564 19.4965 3.98811 19.235 3.8114 18.949L3.69922 18.7663C3.56083 18.5403 3.41149 18.2965 3.26077 18.0742C2.88732 17.5235 2.33635 16.8353 1.44352 16.6009L0.497004 16.3524L0 18.2454L0.946516 18.4939C1.102 18.5347 1.30669 18.6798 1.64089 19.1727C1.76368 19.3538 1.88082 19.5449 2.01456 19.7632C2.05657 19.8317 2.10031 19.9031 2.14629 19.9775C2.32998 20.2749 2.54067 20.6059 2.78615 20.9259C3.28178 21.572 3.95658 22.2232 4.95759 22.5535C5.64536 22.7805 6.42275 22.835 7.31123 22.6985V26.3547C7.31123 26.8952 7.74936 27.3333 8.28982 27.3333H16.1186C16.659 27.3333 17.0972 26.8952 17.0972 26.3547V19.3822C17.0972 18.7642 17.0702 18.1991 16.8963 17.6719C18.1926 17.3983 19.4835 16.9084 20.547 15.9879C22.0742 14.6659 22.9687 12.6044 22.9687 9.54739L22.9687 9.54423C22.9638 8.02004 22.429 6.55186 21.4667 5.38612C21.6254 4.81002 21.699 4.21264 21.6841 3.61303C21.6641 2.80618 21.4843 2.01129 21.1552 1.27434C21.0373 1.01027 20.8086 0.811893 20.5305 0.732442L20.2617 1.67338C20.5305 0.732442 20.5277 0.73165 20.5268 0.731387L20.523 0.730313L20.5149 0.72811L20.4973 0.723517C20.4848 0.720382 20.4711 0.717119 20.456 0.713811C20.4258 0.707193 20.3903 0.700412 20.3494 0.69413C20.2676 0.681552 20.1649 0.671064 20.0407 0.667749C19.792 0.661108 19.4613 0.683364 19.0441 0.772505C18.2767 0.936465 17.221 1.3256 15.8399 2.17361Z" fill="white"/>
</svg>
