<svg width="30" height="30" viewBox="0 0 30 30" fill="none" xmlns="http://www.w3.org/2000/svg">
<path d="M15.0001 1.66666C18.3351 5.31779 20.2304 10.056 20.3334 15C20.2304 19.9439 18.3351 24.6822 15.0001 28.3333M15.0001 1.66666C11.665 5.31779 9.76974 10.056 9.66675 15C9.76974 19.9439 11.665 24.6822 15.0001 28.3333M15.0001 1.66666C7.63628 1.66666 1.66675 7.63619 1.66675 15C1.66675 22.3638 7.63628 28.3333 15.0001 28.3333M15.0001 1.66666C22.3639 1.66666 28.3334 7.63619 28.3334 15C28.3334 22.3638 22.3639 28.3333 15.0001 28.3333M2.33344 11H27.6668M2.33341 19H27.6667" stroke="white" stroke-width="2" stroke-linecap="round" stroke-linejoin="round"/>
</svg>
