<svg width="88" height="88" viewBox="0 0 88 88" fill="none" xmlns="http://www.w3.org/2000/svg">
<rect width="88" height="88" rx="12" fill="url(#paint0_linear_7453_527)"/>
<g clip-path="url(#clip0_7453_527)">
<path fill-rule="evenodd" clip-rule="evenodd" d="M22.6667 30.1334C22.6667 25.653 22.6667 23.4127 23.5387 21.7015C24.3057 20.1962 25.5295 18.9723 27.0348 18.2053C28.7461 17.3334 30.9863 17.3334 35.4667 17.3334H49.3334L65.3334 33.3334V55.8667C65.3334 60.3471 65.3334 62.5873 64.4615 64.2986C63.6945 65.8039 62.4706 67.0278 60.9653 67.7948C59.2541 68.6667 57.0139 68.6667 52.5335 68.6667H52.5334H35.4667H35.4667C30.9863 68.6667 28.7461 68.6667 27.0348 67.7948C25.5295 67.0278 24.3057 65.8039 23.5387 64.2986C22.6667 62.5873 22.6667 60.3471 22.6667 55.8667V30.1334ZM31.3335 38C31.3335 36.8954 32.2289 36 33.3335 36H38.6668C39.7714 36 40.6668 36.8954 40.6668 38C40.6668 39.1046 39.7714 40 38.6668 40H33.3335C32.2289 40 31.3335 39.1046 31.3335 38ZM31.3335 47.6667C31.3335 46.5621 32.2289 45.6667 33.3335 45.6667H54.6668C55.7714 45.6667 56.6668 46.5621 56.6668 47.6667C56.6668 48.7712 55.7714 49.6667 54.6668 49.6667H33.3335C32.2289 49.6667 31.3335 48.7712 31.3335 47.6667ZM31.3335 57.3333C31.3335 56.2288 32.2289 55.3333 33.3335 55.3333H54.6668C55.7714 55.3333 56.6668 56.2288 56.6668 57.3333C56.6668 58.4379 55.7714 59.3333 54.6668 59.3333H33.3335C32.2289 59.3333 31.3335 58.4379 31.3335 57.3333ZM49 24.8627V29.6495C49 30.8223 49 31.4087 49.2282 31.8566C49.429 32.2507 49.7493 32.571 50.1434 32.7718C50.5913 33 51.1777 33 52.3505 33H57.1373C58.3489 33 58.9547 33 59.2352 32.7604C59.4786 32.5525 59.6078 32.2407 59.5827 31.9215C59.5538 31.5538 59.1254 31.1254 58.2686 30.2686L51.7314 23.7314C50.8746 22.8746 50.4462 22.4462 50.0785 22.4173C49.7593 22.3922 49.4475 22.5214 49.2396 22.7648C49 23.0453 49 23.6511 49 24.8627Z" fill="white"/>
</g>
<defs>
<linearGradient id="paint0_linear_7453_527" x1="8.85942e-07" y1="9" x2="88" y2="49.5" gradientUnits="userSpaceOnUse">
<stop stop-color="#FDA9FF"/>
<stop offset="1" stop-color="#039CFF"/>
</linearGradient>
<clipPath id="clip0_7453_527">
<rect width="64" height="64" fill="white" transform="translate(12 12)"/>
</clipPath>
</defs>
</svg>
