<svg width="88" height="88" viewBox="0 0 88 88" fill="none" xmlns="http://www.w3.org/2000/svg">
<rect width="88" height="88" rx="12" fill="#5865F2"/>
<path fill-rule="evenodd" clip-rule="evenodd" d="M28.2104 61.6254C29.3947 62.0522 30.7013 62.481 32.1292 62.8764C29.6137 65.2889 25.7143 68.6667 25.7143 68.6667C13.6044 68.3124 12 59.1526 12 59.1526C12 42.8567 19.8903 23.3143 19.8903 23.3143C27.7807 17.8485 35.2875 18.0004 35.2875 18.0004L35.9826 22.3179C35.9826 22.3179 40.9725 21.8264 44 21.8C47.0275 21.7736 51.4873 22.1826 51.4873 22.1826L52.7121 18.0008C52.7121 18.0008 60.2189 17.8485 68.1093 23.3146C68.1093 23.3146 76 42.8567 76 59.1526C76 59.1526 74.3952 68.3124 62.2857 68.6667C62.2857 68.6667 58.6446 65.3499 56.2375 62.9596C57.5011 62.6014 58.7783 62.1736 60.0738 61.6724C62.1417 60.96 64.4175 59.9303 66.7914 58.4864L64.2771 54.9602C62.1751 56.2387 60.1931 57.128 58.4376 57.7297L58.4087 57.7398L58.386 57.7481L58.3474 57.7626C55.7576 58.7676 53.2952 59.428 50.904 59.8042L50.8666 59.8104C45.938 60.6638 41.4086 60.4302 37.5222 59.7607C34.5694 59.2337 32.0229 58.4671 29.8743 57.6929C27.7245 56.9158 25.8851 56.0939 24.1052 54.9433L21.4838 58.4023C23.6597 59.809 25.8579 60.7751 28.2104 61.6254ZM38.6667 42.0002C38.6667 44.9458 36.2789 47.3336 33.3333 47.3336C30.3878 47.3336 28 44.9458 28 42.0002C28 39.0547 30.3878 36.6669 33.3333 36.6669C36.2789 36.6669 38.6667 39.0547 38.6667 42.0002ZM54.6667 47.3336C57.6122 47.3336 60 44.9458 60 42.0002C60 39.0547 57.6122 36.6669 54.6667 36.6669C51.7212 36.6669 49.3333 39.0547 49.3333 42.0002C49.3333 44.9458 51.7212 47.3336 54.6667 47.3336Z" fill="white"/>
</svg>
