<svg width="88" height="88" viewBox="0 0 88 88" fill="none" xmlns="http://www.w3.org/2000/svg">
<rect width="88" height="88" rx="12" fill="#1DA1F3"/>
<path d="M70.5858 24.3267C70.5386 23.6136 70.0688 22.9981 69.3934 22.7644C68.718 22.5306 67.9683 22.724 67.4903 23.2554C66.2615 24.6212 64.7084 25.5468 63.1322 25.9688C60.94 23.9222 57.9945 22.6666 54.7577 22.6666C47.8108 22.6666 42.1839 28.3061 42.1839 35.2571V36.8208C31.5484 35.9989 25.8609 27.9198 24.3262 23.821C24.0782 23.1584 23.4609 22.7061 22.7544 22.669C22.0479 22.632 21.3867 23.0173 21.0708 23.6503C17.3491 31.1051 16.7757 38.3356 19.4806 44.4926C21.85 49.8861 26.6153 54.1825 33.3691 57.0289C30.2997 59.2041 25.1335 61.7775 19.1113 61.7775C18.3281 61.7775 17.6372 62.29 17.41 63.0395C17.1828 63.789 17.4728 64.5989 18.1241 65.0337C23.8987 68.8894 29.9507 68.889 35.5798 68.8886L35.7521 68.8886C53.0343 68.8886 67.0397 54.8576 67.0397 37.5554V35.8548C68.3319 34.5414 69.3379 33.197 69.9545 31.459C70.6424 29.5196 70.781 27.2709 70.5858 24.3267Z" fill="white"/>
</svg>
